<svg xmlns="http://www.w3.org/2000/svg" xmlns:xlink="http://www.w3.org/1999/xlink" width="54.17" height="57.507" viewBox="0 0 54.17 57.507"><defs><linearGradient id="a" x1="0.5" x2="0.5" y2="1" gradientUnits="objectBoundingBox"><stop offset="0" stop-color="#f3071d"/><stop offset="1" stop-color="#e600ff"/></linearGradient></defs><g transform="translate(448.796 -1715.443)"><g transform="translate(-448.796 1715.443)"><path d="M7.719,26.5l-1.76.662a.708.708,0,0,0-.454.473l-.606,1.8a.772.772,0,0,1-1.457.019l-.663-1.76a.708.708,0,0,0-.473-.454l-1.8-.587A.781.781,0,0,1,.49,25.174l1.76-.662a.708.708,0,0,0,.454-.473l.587-1.8a.772.772,0,0,1,1.457-.016l.662,1.76a.708.708,0,0,0,.473.454l1.8.587A.785.785,0,0,1,7.719,26.5Z" transform="translate(0.027 -15.292)" opacity="0.35" fill="url(#a)"/><path d="M306.323,382.781l-2.168.816a.872.872,0,0,0-.56.583l-.723,2.215a.95.95,0,0,1-1.8.024l-.816-2.169a.872.872,0,0,0-.583-.56l-2.215-.723a.95.95,0,0,1-.023-1.8l2.168-.816a.873.873,0,0,0,.56-.583l.723-2.215a.951.951,0,0,1,1.8-.023l.816,2.168a.872.872,0,0,0,.583.56l2.215.723a.955.955,0,0,1,.024,1.8Z" transform="translate(-255.39 -336.005)" opacity="0.35" fill="url(#a)"/><path d="M358.75,109.355l-2.084.784a.838.838,0,0,0-.538.56l-.694,2.129a.913.913,0,0,1-1.725.022l-.784-2.084a.838.838,0,0,0-.56-.538l-2.129-.694a.913.913,0,0,1-.022-1.725l2.084-.784a.838.838,0,0,0,.538-.56l.694-2.129a.913.913,0,0,1,1.725-.022l.784,2.084a.838.838,0,0,0,.56.538l2.129.694a.917.917,0,0,1,.022,1.725Z" transform="translate(-305.175 -103.712)" fill="url(#a)"/><g transform="translate(8.481 26.792)"><g transform="translate(0 0)"><path d="M53.909,221.6h0a1.584,1.584,0,0,0-1.576,1.428,14,14,0,0,1-13.676,12.925,14,14,0,0,1-13.676-12.925,1.576,1.576,0,0,0-1.576-1.428h0a1.573,1.573,0,0,0-1.576,1.724A17.338,17.338,0,0,0,35.654,238.85V244.7H32.311a3.8,3.8,0,0,0-3.808,3.808h0a3.8,3.8,0,0,0,3.808,3.808h12.7a3.8,3.8,0,0,0,3.808-3.808h0a3.8,3.8,0,0,0-3.808-3.808H41.672V238.85A17.331,17.331,0,0,0,55.5,223.323a1.586,1.586,0,0,0-1.587-1.724Z" transform="translate(-21.822 -221.599)" fill="url(#a)"/></g></g><g transform="translate(14.042 3.354)"><g transform="translate(0 0)"><path d="M96.96,13.612h0a2.216,2.216,0,0,0-2.21-2.21H90.773V8.228h3.554a1.391,1.391,0,0,0,1.227-2.052,10.988,10.988,0,0,0-19.757,0,1.4,1.4,0,0,0,1.227,2.052h3.554V11.4H76.557A2.153,2.153,0,0,0,74.4,13.559v.106a2.162,2.162,0,0,0,2.157,2.168h4.03v3.173h-4.03A2.156,2.156,0,0,0,74.4,21.174v.106a2.16,2.16,0,0,0,2.157,2.157h4.03V26.61H77.033a1.391,1.391,0,0,0-1.227,2.052,10.988,10.988,0,0,0,19.757,0,1.4,1.4,0,0,0-1.226-2.051H90.784V23.437H94.76a2.209,2.209,0,0,0,2.21-2.21h0a2.212,2.212,0,0,0-2.21-2.221H90.784V15.833H94.76A2.23,2.23,0,0,0,96.96,13.612Z" transform="translate(-74.4 0.001)" fill="url(#a)"/></g></g></g></g></svg>