<svg xmlns="http://www.w3.org/2000/svg" xmlns:xlink="http://www.w3.org/1999/xlink" width="42.929" height="62.659" viewBox="0 0 42.929 62.659"><defs><linearGradient id="a" x1="0.5" x2="0.5" y2="1" gradientUnits="objectBoundingBox"><stop offset="0" stop-color="#f3071d"/><stop offset="1" stop-color="#e600ff"/></linearGradient></defs><g transform="translate(-1049.784 -1437.977)"><g transform="translate(1049.784 1437.977)"><path d="M152.259,152.637a.141.141,0,0,0-.074.135c-.025.172.16.086,1.537,1.8a2.415,2.415,0,0,0,.984-.972l6.013-10.477a2.431,2.431,0,0,0,.233-1.894,2.5,2.5,0,0,0-3.984-1.328c-.529.406-.554.578-2.066,3.222,3.394.75,3.714,6.038-2.644,9.518Z" transform="translate(-133.472 -122.218)" fill="url(#a)"/><path d="M102.682,123.194c-.357.492.025-.184-2.718,4.6l-5.349,2.519L92.5,127.817a9.843,9.843,0,0,0,8.891-6.517Z" transform="translate(-81.127 -106.389)" fill="url(#a)"/><path d="M218.969,239.876a2.515,2.515,0,0,0,3.431-.935l6.013-10.477a2.515,2.515,0,1,0-4.366-2.5l-6.013,10.477A2.515,2.515,0,0,0,218.969,239.876Z" transform="translate(-190.934 -197.075)" fill="url(#a)"/><path d="M260.552,282.576a2.515,2.515,0,0,0,3.431-.935L270,271.164a2.515,2.515,0,0,0-4.366-2.5l-6.016,10.477a2.5,2.5,0,0,0,.937,3.431Z" transform="translate(-227.399 -234.524)" fill="url(#a)"/><path d="M73.838,201.834a42.518,42.518,0,0,0-5.03-6.456,2.159,2.159,0,0,1,.516-3.443c1.451-.787,3.91-2.472,3.972-4.808a1,1,0,0,0-.467-.849,1.013,1.013,0,0,0-.972-.06l-8.386,3.935a3.725,3.725,0,0,0-2.14,3.3c-.086,4.587.271,14.08,4.218,16.466a1.008,1.008,0,1,1-1.008,1.746,6.649,6.649,0,0,1-1.8-1.672l-3.6,6.284a3.21,3.21,0,0,0,1.193,4.39l8.387,4.807a3.21,3.21,0,0,0,4.39-1.193l3.75-6.556a1.986,1.986,0,0,1,1.267-.947,1.269,1.269,0,0,1,.639.06,3.574,3.574,0,0,0,4.181-1.636l1.144-1.992a4.447,4.447,0,0,1-2.644-4.931,4.41,4.41,0,0,1-4.562-2.164,7.157,7.157,0,0,1-1.38,3.359,1.036,1.036,0,0,1-1.4.259,1.011,1.011,0,0,1-.234-1.451,5.279,5.279,0,0,0-.037-6.443Z" transform="translate(-51.497 -163.238)" fill="url(#a)"/><path d="M179.923,197.508a2.5,2.5,0,0,0,2.1-1.267l6.013-10.477a2.515,2.515,0,0,0-4.366-2.5L177.5,194.028a37.224,37.224,0,0,1,2.423,3.479Z" transform="translate(-155.675 -159.626)" fill="url(#a)"/><path d="M283.123,373.633a2.007,2.007,0,0,0,2.73.405l2.669-1.943a2.014,2.014,0,0,0,.5-2.718l-1.783-2.779-1.746,3.05a4.508,4.508,0,0,1-3.615,2.263C281.807,372.035,281.647,371.777,283.123,373.633Z" transform="translate(-247.181 -321.524)" fill="url(#a)"/><g transform="translate(0 0)"><path d="M3.982,2A9.884,9.884,0,0,0,1.99,15.819q.221.3.48.59A6.9,6.9,0,0,0,4.831,16.1a22.5,22.5,0,0,0,6.948-3.677,22.574,22.574,0,0,0,5.485-5.632,6.526,6.526,0,0,0,.96-2.177c-.136-.209-.283-.42-.431-.615A9.862,9.862,0,0,0,3.982,2Z" transform="translate(-0.026 -0.034)" fill="url(#a)"/></g><g transform="translate(5.405 8.074)"><g transform="translate(0)"><path d="M58.1,65.8a25.187,25.187,0,0,1-6.148,6.358,25,25,0,0,1-7.836,4.106c-.037.013-.074.025-.123.037A9.868,9.868,0,0,0,58.154,65.7.247.247,0,0,1,58.1,65.8Z" transform="translate(-43.995 -65.7)" fill="url(#a)"/></g></g></g></g></svg>