<svg xmlns="http://www.w3.org/2000/svg" xmlns:xlink="http://www.w3.org/1999/xlink" width="367.599" height="42.348" viewBox="0 0 367.599 42.348"><defs><linearGradient id="a" x1="-18.726" y1="0.501" x2="143.122" y2="0.487" gradientUnits="objectBoundingBox"><stop offset="0" stop-color="#e600ff"/><stop offset="1" stop-color="#f3071d"/></linearGradient><linearGradient id="b" x1="-75.355" y1="0.51" x2="86.494" y2="0.492" xlink:href="#a"/><linearGradient id="c" x1="-47.09" y1="0.503" x2="114.759" y2="0.496" xlink:href="#a"/><linearGradient id="d" x1="-103.719" y1="0.511" x2="58.13" y2="0.491" xlink:href="#a"/><linearGradient id="e" x1="-21.878" y1="0.502" x2="139.971" y2="0.48" xlink:href="#a"/><linearGradient id="f" x1="-78.506" y1="0.51" x2="83.342" y2="0.488" xlink:href="#a"/><linearGradient id="g" x1="-50.241" y1="0.503" x2="111.607" y2="0.495" xlink:href="#a"/><linearGradient id="h" x1="-25.029" y1="0.504" x2="136.82" y2="0.486" xlink:href="#a"/><linearGradient id="i" x1="-81.658" y1="0.513" x2="80.191" y2="0.487" xlink:href="#a"/><linearGradient id="j" x1="-53.393" y1="0.505" x2="108.456" y2="0.493" xlink:href="#a"/><linearGradient id="k" x1="-28.181" y1="0.502" x2="133.667" y2="0.482" xlink:href="#a"/><linearGradient id="l" x1="-84.809" y1="0.508" x2="77.039" y2="0.493" xlink:href="#a"/><linearGradient id="m" x1="-56.544" y1="0.505" x2="105.304" y2="0.485" xlink:href="#a"/><linearGradient id="n" x1="0.084" y1="0.503" x2="161.932" y2="0.461" xlink:href="#a"/><linearGradient id="o" x1="-31.333" y1="0.503" x2="130.516" y2="0.481" xlink:href="#a"/><linearGradient id="p" x1="-87.961" y1="0.509" x2="73.889" y2="0.489" xlink:href="#a"/><linearGradient id="q" x1="-59.696" y1="0.507" x2="102.153" y2="0.485" xlink:href="#a"/><linearGradient id="r" x1="-3.067" y1="0.499" x2="158.781" y2="0.477" xlink:href="#a"/><linearGradient id="s" x1="-34.484" y1="0.503" x2="127.364" y2="0.488" xlink:href="#a"/><linearGradient id="t" x1="-91.112" y1="0.507" x2="70.737" y2="0.493" xlink:href="#a"/><linearGradient id="u" x1="-62.651" y1="0.506" x2="99.199" y2="0.486" xlink:href="#a"/><linearGradient id="v" x1="-6.219" y1="0.503" x2="155.629" y2="0.472" xlink:href="#a"/><linearGradient id="w" x1="-37.636" y1="0.504" x2="124.213" y2="0.488" xlink:href="#a"/><linearGradient id="x" x1="-94.264" y1="0.512" x2="67.585" y2="0.49" xlink:href="#a"/><linearGradient id="y" x1="-65.901" y1="0.509" x2="95.948" y2="0.491" xlink:href="#a"/><linearGradient id="z" x1="-9.371" y1="0.499" x2="152.478" y2="0.487" xlink:href="#a"/><linearGradient id="aa" x1="-40.787" y1="0.503" x2="121.061" y2="0.492" xlink:href="#a"/><linearGradient id="ab" x1="-97.416" y1="0.516" x2="64.433" y2="0.49" xlink:href="#a"/><linearGradient id="ac" x1="-69.052" y1="0.506" x2="92.796" y2="0.491" xlink:href="#a"/><linearGradient id="ad" x1="-12.522" y1="0.501" x2="149.326" y2="0.49" xlink:href="#a"/><linearGradient id="ae" x1="-43.938" y1="0.503" x2="117.91" y2="0.495" xlink:href="#a"/><linearGradient id="af" x1="-100.567" y1="0.511" x2="61.282" y2="0.494" xlink:href="#a"/><linearGradient id="ag" x1="-72.204" y1="0.505" x2="89.646" y2="0.492" xlink:href="#a"/><linearGradient id="ah" x1="-15.674" y1="0.501" x2="146.175" y2="0.487" xlink:href="#a"/></defs><g transform="translate(-1300.5 -3282.029)"><text transform="translate(1300.5 3306.271)" fill="#8091a7" font-size="9" font-family="Montserrat-SemiBold, Montserrat" font-weight="600"><tspan x="0" y="0">2:30</tspan></text><text transform="translate(1647.099 3306.271)" fill="#8091a7" font-size="9" font-family="Montserrat-SemiBold, Montserrat" font-weight="600"><tspan x="0" y="0">4:00</tspan></text><g transform="translate(1340.83 3282.029)"><g transform="translate(0 0)"><g transform="translate(33.19 10.253)"><path d="M.882,21.93A.862.862,0,0,1,0,21.048H0V.882A.862.862,0,0,1,.882,0a.862.862,0,0,1,.882.882V21.048a.862.862,0,0,1-.882.882Z" fill="#4b537b"/></g><g transform="translate(133.112 12.859)"><path d="M.882,16.637A.862.862,0,0,1,0,15.754V.882A.862.862,0,0,1,.882,0a.862.862,0,0,1,.882.882v15a.843.843,0,0,1-.882.756Z" fill="#4b537b"/></g><g transform="translate(83.238)"><path d="M.882,42.348A.843.843,0,0,1,0,41.592V.882A.862.862,0,0,1,.882,0a.862.862,0,0,1,.882.882v40.71a.843.843,0,0,1-.882.756Z" fill="#4b537b"/></g><g transform="translate(183.159 13.728)"><path d="M.882,15A.862.862,0,0,1,0,14.116V.882A.862.862,0,0,1,.882,0a.862.862,0,0,1,.882.882V14.116A.947.947,0,0,1,.882,15Z" fill="#4b537b"/></g><g transform="translate(238.768 13.728)"><path d="M.882,15A.862.862,0,0,1,0,14.116V.882A.862.862,0,0,1,.882,0a.862.862,0,0,1,.882.882V14.116A.947.947,0,0,1,.882,15Z" fill="#4b537b"/></g><g transform="translate(38.751 14.597)"><path d="M.882,13.234A.862.862,0,0,1,0,12.352H0V.882A.862.862,0,0,1,.882,0a.862.862,0,0,1,.882.882V12.352a.862.862,0,0,1-.882.882Z" fill="#4b537b"/></g><g transform="translate(138.672 14.597)"><path d="M.882,13.234A.862.862,0,0,1,0,12.352V.882A.862.862,0,0,1,.882,0a.862.862,0,0,1,.882.882V12.352a.862.862,0,0,1-.882.882Z" fill="#4b537b"/></g><g transform="translate(88.799 3.128)"><path d="M.882,35.92A.862.862,0,0,1,0,35.038V.882A.862.862,0,0,1,.882,0a.862.862,0,0,1,.882.882V35.164a.843.843,0,0,1-.882.756Z" fill="#4b537b"/></g><g transform="translate(188.546 12.859)"><path d="M.882,16.637A.862.862,0,0,1,0,15.754V.882A.862.862,0,0,1,.882,0a.862.862,0,0,1,.882.882v15a.843.843,0,0,1-.882.756Z" fill="#4b537b"/></g><g transform="translate(244.154 12.859)"><path d="M.882,16.637A.862.862,0,0,1,0,15.754V.882A.862.862,0,0,1,.882,0a.862.862,0,0,1,.882.882v15a.843.843,0,0,1-.882.756Z" fill="#4b537b"/></g><g transform="translate(44.312 12.859)"><path d="M.882,16.637A.862.862,0,0,1,0,15.754H0V.882A.862.862,0,0,1,.882,0a.862.862,0,0,1,.882.882v15a.843.843,0,0,1-.882.756Z" fill="#4b537b"/></g><g transform="translate(144.233 15.466)"><path d="M.882,11.469A.862.862,0,0,1,0,10.587V.882A.862.862,0,0,1,.882,0a.862.862,0,0,1,.882.882v9.7a.862.862,0,0,1-.882.882Z" fill="#4b537b"/></g><g transform="translate(94.359 8.515)"><path d="M.882,25.333A.862.862,0,0,1,0,24.451V.882A.862.862,0,0,1,.882,0a.862.862,0,0,1,.882.882V24.577a.843.843,0,0,1-.882.756Z" fill="#4b537b"/></g><g transform="translate(194.107 14.597)"><path d="M.882,13.234A.862.862,0,0,1,0,12.352V.882A.862.862,0,0,1,.882,0a.862.862,0,0,1,.882.882V12.352a.862.862,0,0,1-.882.882Z" fill="#4b537b"/></g><g transform="translate(249.715 13.728)"><path d="M.882,15A.862.862,0,0,1,0,14.116V.882A.862.862,0,0,1,.882,0a.862.862,0,0,1,.882.882V14.116A.947.947,0,0,1,.882,15Z" fill="#4b537b"/></g><g transform="translate(49.874 13.728)"><path d="M.882,15A.862.862,0,0,1,0,14.116H0V.882A.862.862,0,0,1,.882,0a.862.862,0,0,1,.882.882V14.116A.947.947,0,0,1,.882,15Z" fill="#4b537b"/></g><g transform="translate(149.794 11.121)"><path d="M.882,20.166A.862.862,0,0,1,0,19.284H0V.882A.862.862,0,0,1,.882,0a.862.862,0,0,1,.882.882v18.4a.862.862,0,0,1-.882.882Z" fill="#4b537b"/></g><g transform="translate(99.92 13.728)"><path d="M.882,15A.862.862,0,0,1,0,14.116V.882A.862.862,0,0,1,.882,0a.862.862,0,0,1,.882.882V14.116A.947.947,0,0,1,.882,15Z" fill="#4b537b"/></g><g transform="translate(0 17.711)"><path d="M.882,6.932A.862.862,0,0,1,0,6.05H0V.882A.862.862,0,0,1,.882,0a.862.862,0,0,1,.882.882V6.176a.843.843,0,0,1-.882.756Z" fill="#4b537b"/></g><g transform="translate(199.667 9.385)"><path d="M.882,23.695A.862.862,0,0,1,0,22.813V.882A.862.862,0,0,1,.882,0a.862.862,0,0,1,.882.882v21.93a.947.947,0,0,1-.882.882Z" fill="#4b537b"/></g><g transform="translate(255.276 14.597)"><path d="M.882,13.234A.862.862,0,0,1,0,12.352V.882A.862.862,0,0,1,.882,0a.862.862,0,0,1,.882.882V12.352a.862.862,0,0,1-.882.882Z" fill="#4b537b"/></g><g transform="translate(55.434 14.597)"><path d="M.882,13.234A.862.862,0,0,1,0,12.352H0V.882A.862.862,0,0,1,.882,0a.862.862,0,0,1,.882.882V12.352a.862.862,0,0,1-.882.882Z" fill="#4b537b"/></g><g transform="translate(155.354 13.728)"><path d="M.882,15A.862.862,0,0,1,0,14.116V.882A.862.862,0,0,1,.882,0a.862.862,0,0,1,.882.882V14.116A.947.947,0,0,1,.882,15Z" fill="#4b537b"/></g><g transform="translate(105.481 14.597)"><path d="M.882,13.234H.756c-.378,0-.756-.5-.756-.882V.882A.862.862,0,0,1,.882,0h0a.862.862,0,0,1,.882.882V12.352A.862.862,0,0,1,.882,13.234Z" fill="#4b537b"/></g><g transform="translate(5.559 14.597)"><path d="M.882,13.234A.862.862,0,0,1,0,12.352H0V.882A.862.862,0,0,1,.882,0a.862.862,0,0,1,.882.882V12.352a.862.862,0,0,1-.882.882Z" fill="#4b537b"/></g><g transform="translate(205.228 3.476)"><path d="M.882,35.29A.862.862,0,0,1,0,34.408V.882A1.071,1.071,0,0,1,.882,0a.862.862,0,0,1,.882.882V34.408A.862.862,0,0,1,.882,35.29Z" fill="#4b537b"/></g><g transform="translate(260.836 15.466)"><path d="M.882,11.469A.862.862,0,0,1,0,10.587V.882A.862.862,0,0,1,.882,0a.862.862,0,0,1,.882.882v9.7a.862.862,0,0,1-.882.882Z" fill="#4b537b"/></g><g transform="translate(60.995 11.121)"><path d="M.882,20.166A.862.862,0,0,1,0,19.284V.882A.862.862,0,0,1,.882,0a.862.862,0,0,1,.882.882v18.4a.862.862,0,0,1-.882.882Z" fill="#4b537b"/></g><g transform="translate(160.915 10.253)"><path d="M.882,21.93A.862.862,0,0,1,0,21.048V.882A.862.862,0,0,1,.882,0a.862.862,0,0,1,.882.882V21.048a.862.862,0,0,1-.882.882Z" fill="#4b537b"/></g><g transform="translate(110.695 13.728)"><path d="M.882,15A.862.862,0,0,1,0,14.116V.882A.862.862,0,0,1,.882,0a.862.862,0,0,1,.882.882V14.116A.947.947,0,0,1,.882,15Z" fill="#4b537b"/></g><g transform="translate(11.121 16.335)"><path d="M.882,9.7A.862.862,0,0,1,0,8.823H0V.882A.862.862,0,0,1,.882,0a.862.862,0,0,1,.882.882h0v7.94A.862.862,0,0,1,.882,9.7Z" fill="#4b537b"/></g><g transform="translate(210.789 0.87)"><path d="M.882,40.458A.862.862,0,0,1,0,39.575V.882A.862.862,0,0,1,.882,0a.862.862,0,0,1,.882.882V39.575a.861.861,0,0,1-.882.882Z" fill="#4b537b"/></g><g transform="translate(266.397 15.466)"><path d="M.882,11.469A.862.862,0,0,1,0,10.587V.882A.862.862,0,0,1,.882,0a.862.862,0,0,1,.882.882v9.7a.862.862,0,0,1-.882.882Z" fill="#4b537b"/></g><g transform="translate(66.556 11.991)"><path d="M.882,18.4A.862.862,0,0,1,0,17.519V.882A.862.862,0,0,1,.882,0a.862.862,0,0,1,.882.882V17.519a.862.862,0,0,1-.882.882Z" fill="#4b537b"/></g><g transform="translate(166.476 14.597)"><path d="M.882,13.234A.862.862,0,0,1,0,12.352V.882A.862.862,0,0,1,.882,0a.862.862,0,0,1,.882.882V12.352a.862.862,0,0,1-.882.882Z" fill="#4b537b"/></g><g transform="translate(116.43 12.859)"><path d="M.882,16.637A.862.862,0,0,1,0,15.754V.882A.862.862,0,0,1,.882,0a.862.862,0,0,1,.882.882v15a.843.843,0,0,1-.882.756Z" fill="#4b537b"/></g><g transform="translate(16.682 9.385)"><path d="M.882,23.695A.862.862,0,0,1,0,22.813H0V.882A.862.862,0,0,1,.882,0a.862.862,0,0,1,.882.882v21.93a.947.947,0,0,1-.882.882Z" fill="#4b537b"/></g><g transform="translate(216.35 3.476)"><path d="M.882,35.29A.862.862,0,0,1,0,34.408V.882A.862.862,0,0,1,.882,0a.862.862,0,0,1,.882.882V34.408a.862.862,0,0,1-.882.882Z" fill="#4b537b"/></g><g transform="translate(271.958 16.335)"><path d="M.882,9.7A.862.862,0,0,1,0,8.823V.882A.862.862,0,0,1,.882,0a.862.862,0,0,1,.882.882h0v7.94A.862.862,0,0,1,.882,9.7Z" fill="#4b537b"/></g><g transform="translate(72.117 7.647)"><path d="M.882,27.1A.862.862,0,0,1,0,26.215V.882A.862.862,0,0,1,.882,0a.862.862,0,0,1,.882.882V26.215a.862.862,0,0,1-.882.882Z" fill="#4b537b"/></g><g transform="translate(172.038 15.466)"><path d="M.882,11.469A.862.862,0,0,1,0,10.587V.882A.862.862,0,0,1,.882,0a.862.862,0,0,1,.882.882v9.7a.862.862,0,0,1-.882.882Z" fill="#4b537b"/></g><g transform="translate(121.99 11.121)"><path d="M.882,20.166A.862.862,0,0,1,0,19.284H0V.882A.862.862,0,0,1,.882,0a.862.862,0,0,1,.882.882v18.4a.862.862,0,0,1-.882.882Z" fill="#4b537b"/></g><g transform="translate(22.243 6.778)"><path d="M.882,28.862A.862.862,0,0,1,0,27.98H0V.882A.862.862,0,0,1,.882,0a.862.862,0,0,1,.882.882v27.1A.862.862,0,0,1,.882,28.862Z" fill="#4b537b"/></g><g transform="translate(221.911 8.515)"><path d="M.882,25.333A.862.862,0,0,1,0,24.451V.882A.862.862,0,0,1,.882,0a.862.862,0,0,1,.882.882V24.577a.843.843,0,0,1-.882.756Z" fill="#4b537b"/></g><g transform="translate(277.519 16.335)"><path d="M.882,9.7A.862.862,0,0,1,0,8.823V.882A.862.862,0,0,1,.882,0a.862.862,0,0,1,.882.882h0v7.94A.862.862,0,0,1,.882,9.7Z" fill="#4b537b"/></g><g transform="translate(283.081 17.726)"><path d="M.882,6.806A.862.862,0,0,1,0,5.924V.882A.862.862,0,0,1,.882,0a.862.862,0,0,1,.882.882V5.924a.862.862,0,0,1-.882.882Z" fill="#4b537b"/></g><g transform="translate(77.677 3.128)"><path d="M.882,35.92A.862.862,0,0,1,0,35.038V.882A.862.862,0,0,1,.882,0a.862.862,0,0,1,.882.882V35.164a.843.843,0,0,1-.882.756Z" fill="#4b537b"/></g><g transform="translate(177.599 11.991)"><path d="M.882,18.4A.862.862,0,0,1,0,17.519V.882A.862.862,0,0,1,.882,0a.862.862,0,0,1,.882.882V17.519a.862.862,0,0,1-.882.882Z" fill="#4b537b"/></g><g transform="translate(233.206 11.991)"><path d="M.882,18.4A.862.862,0,0,1,0,17.519V.882A.862.862,0,0,1,.882,0a.862.862,0,0,1,.882.882V17.519a.862.862,0,0,1-.882.882Z" fill="#4b537b"/></g><g transform="translate(127.551 10.253)"><path d="M.882,21.93A.862.862,0,0,1,0,21.048V.882A.862.862,0,0,1,.882,0a.862.862,0,0,1,.882.882V21.048a.862.862,0,0,1-.882.882Z" fill="#4b537b"/></g><g transform="translate(27.804 11.121)"><path d="M.882,20.166A.862.862,0,0,1,0,19.284H0V.882A.862.862,0,0,1,.882,0a.862.862,0,0,1,.882.882v18.4a.862.862,0,0,1-.882.882Z" fill="#4b537b"/></g><g transform="translate(227.472 10.253)"><path d="M.882,21.93A.862.862,0,0,1,0,21.048V.882A.862.862,0,0,1,.882,0a.862.862,0,0,1,.882.882V21.048a.862.862,0,0,1-.882.882Z" fill="#4b537b"/></g></g><g transform="translate(0 0)"><g transform="translate(33.19 10.253)"><path d="M.882,21.93A.862.862,0,0,1,0,21.048H0V.882A.862.862,0,0,1,.882,0a.862.862,0,0,1,.882.882V21.048a.862.862,0,0,1-.882.882Z" fill="url(#a)"/></g><g transform="translate(133.112 12.859)"><path d="M.882,16.637A.862.862,0,0,1,0,15.754V.882A.862.862,0,0,1,.882,0a.862.862,0,0,1,.882.882v15a.843.843,0,0,1-.882.756Z" fill="url(#b)"/></g><g transform="translate(83.238)"><path d="M.882,42.348A.843.843,0,0,1,0,41.592V.882A.862.862,0,0,1,.882,0a.862.862,0,0,1,.882.882v40.71a.843.843,0,0,1-.882.756Z" fill="url(#c)"/></g><g transform="translate(183.159 13.728)"><path d="M.882,15A.862.862,0,0,1,0,14.116V.882A.862.862,0,0,1,.882,0a.862.862,0,0,1,.882.882V14.116A.947.947,0,0,1,.882,15Z" fill="url(#d)"/></g><g transform="translate(38.751 14.597)"><path d="M.882,13.234A.862.862,0,0,1,0,12.352H0V.882A.862.862,0,0,1,.882,0a.862.862,0,0,1,.882.882V12.352a.862.862,0,0,1-.882.882Z" fill="url(#e)"/></g><g transform="translate(138.672 14.597)"><path d="M.882,13.234A.862.862,0,0,1,0,12.352V.882A.862.862,0,0,1,.882,0a.862.862,0,0,1,.882.882V12.352a.862.862,0,0,1-.882.882Z" fill="url(#f)"/></g><g transform="translate(88.799 3.128)"><path d="M.882,35.92A.862.862,0,0,1,0,35.038V.882A.862.862,0,0,1,.882,0a.862.862,0,0,1,.882.882V35.164a.843.843,0,0,1-.882.756Z" fill="url(#g)"/></g><g transform="translate(44.312 12.859)"><path d="M.882,16.637A.862.862,0,0,1,0,15.754H0V.882A.862.862,0,0,1,.882,0a.862.862,0,0,1,.882.882v15a.843.843,0,0,1-.882.756Z" fill="url(#h)"/></g><g transform="translate(144.233 15.466)"><path d="M.882,11.469A.862.862,0,0,1,0,10.587V.882A.862.862,0,0,1,.882,0a.862.862,0,0,1,.882.882v9.7a.862.862,0,0,1-.882.882Z" fill="url(#i)"/></g><g transform="translate(94.36 8.515)"><path d="M.882,25.333A.862.862,0,0,1,0,24.451V.882A.862.862,0,0,1,.882,0a.862.862,0,0,1,.882.882V24.577a.843.843,0,0,1-.882.756Z" fill="url(#j)"/></g><g transform="translate(49.874 13.728)"><path d="M.882,15A.862.862,0,0,1,0,14.116H0V.882A.862.862,0,0,1,.882,0a.862.862,0,0,1,.882.882V14.116A.947.947,0,0,1,.882,15Z" fill="url(#k)"/></g><g transform="translate(149.794 11.121)"><path d="M.882,20.166A.862.862,0,0,1,0,19.284H0V.882A.862.862,0,0,1,.882,0a.862.862,0,0,1,.882.882v18.4a.862.862,0,0,1-.882.882Z" fill="url(#l)"/></g><g transform="translate(99.92 13.728)"><path d="M.882,15A.862.862,0,0,1,0,14.116V.882A.862.862,0,0,1,.882,0a.862.862,0,0,1,.882.882V14.116A.947.947,0,0,1,.882,15Z" fill="url(#m)"/></g><g transform="translate(0 17.711)"><path d="M.882,6.932A.862.862,0,0,1,0,6.05H0V.882A.862.862,0,0,1,.882,0a.862.862,0,0,1,.882.882V6.176a.843.843,0,0,1-.882.756Z" fill="url(#n)"/></g><g transform="translate(55.434 14.597)"><path d="M.882,13.234A.862.862,0,0,1,0,12.352H0V.882A.862.862,0,0,1,.882,0a.862.862,0,0,1,.882.882V12.352a.862.862,0,0,1-.882.882Z" fill="url(#o)"/></g><g transform="translate(155.354 13.728)"><path d="M.882,15A.862.862,0,0,1,0,14.116V.882A.862.862,0,0,1,.882,0a.862.862,0,0,1,.882.882V14.116A.947.947,0,0,1,.882,15Z" fill="url(#p)"/></g><g transform="translate(105.481 14.597)"><path d="M.882,13.234H.756c-.378,0-.756-.5-.756-.882V.882A.862.862,0,0,1,.882,0h0a.862.862,0,0,1,.882.882V12.352A.862.862,0,0,1,.882,13.234Z" fill="url(#q)"/></g><g transform="translate(5.56 14.597)"><path d="M.882,13.234A.862.862,0,0,1,0,12.352H0V.882A.862.862,0,0,1,.882,0a.862.862,0,0,1,.882.882V12.352a.862.862,0,0,1-.882.882Z" fill="url(#r)"/></g><g transform="translate(60.995 11.121)"><path d="M.882,20.166A.862.862,0,0,1,0,19.284V.882A.862.862,0,0,1,.882,0a.862.862,0,0,1,.882.882v18.4a.862.862,0,0,1-.882.882Z" fill="url(#s)"/></g><g transform="translate(160.915 10.253)"><path d="M.882,21.93A.862.862,0,0,1,0,21.048V.882A.862.862,0,0,1,.882,0a.862.862,0,0,1,.882.882V21.048a.862.862,0,0,1-.882.882Z" fill="url(#t)"/></g><g transform="translate(110.695 13.728)"><path d="M.882,15A.862.862,0,0,1,0,14.116V.882A.862.862,0,0,1,.882,0a.862.862,0,0,1,.882.882V14.116A.947.947,0,0,1,.882,15Z" fill="url(#u)"/></g><g transform="translate(11.121 16.335)"><path d="M.882,9.7A.862.862,0,0,1,0,8.823H0V.882A.862.862,0,0,1,.882,0a.862.862,0,0,1,.882.882h0v7.94A.862.862,0,0,1,.882,9.7Z" fill="url(#v)"/></g><g transform="translate(66.556 11.991)"><path d="M.882,18.4A.862.862,0,0,1,0,17.519V.882A.862.862,0,0,1,.882,0a.862.862,0,0,1,.882.882V17.519a.862.862,0,0,1-.882.882Z" fill="url(#w)"/></g><g transform="translate(166.476 14.597)"><path d="M.882,13.234A.862.862,0,0,1,0,12.352V.882A.862.862,0,0,1,.882,0a.862.862,0,0,1,.882.882V12.352a.862.862,0,0,1-.882.882Z" fill="url(#x)"/></g><g transform="translate(116.429 12.859)"><path d="M.882,16.637A.862.862,0,0,1,0,15.754V.882A.862.862,0,0,1,.882,0a.862.862,0,0,1,.882.882v15a.843.843,0,0,1-.882.756Z" fill="url(#y)"/></g><g transform="translate(16.682 9.385)"><path d="M.882,23.695A.862.862,0,0,1,0,22.813H0V.882A.862.862,0,0,1,.882,0a.862.862,0,0,1,.882.882v21.93a.947.947,0,0,1-.882.882Z" fill="url(#z)"/></g><g transform="translate(72.117 7.647)"><path d="M.882,27.1A.862.862,0,0,1,0,26.215V.882A.862.862,0,0,1,.882,0a.862.862,0,0,1,.882.882V26.215a.862.862,0,0,1-.882.882Z" fill="url(#aa)"/></g><g transform="translate(172.038 15.466)"><path d="M.882,11.469A.862.862,0,0,1,0,10.587V.882A.862.862,0,0,1,.882,0a.862.862,0,0,1,.882.882v9.7a.862.862,0,0,1-.882.882Z" fill="url(#ab)"/></g><g transform="translate(121.99 11.121)"><path d="M.882,20.166A.862.862,0,0,1,0,19.284H0V.882A.862.862,0,0,1,.882,0a.862.862,0,0,1,.882.882v18.4a.862.862,0,0,1-.882.882Z" fill="url(#ac)"/></g><g transform="translate(22.243 6.778)"><path d="M.882,28.862A.862.862,0,0,1,0,27.98H0V.882A.862.862,0,0,1,.882,0a.862.862,0,0,1,.882.882v27.1A.862.862,0,0,1,.882,28.862Z" fill="url(#ad)"/></g><g transform="translate(77.677 3.128)"><path d="M.882,35.92A.862.862,0,0,1,0,35.038V.882A.862.862,0,0,1,.882,0a.862.862,0,0,1,.882.882V35.164a.843.843,0,0,1-.882.756Z" fill="url(#ae)"/></g><g transform="translate(177.599 11.991)"><path d="M.882,18.4A.862.862,0,0,1,0,17.519V.882A.862.862,0,0,1,.882,0a.862.862,0,0,1,.882.882V17.519a.862.862,0,0,1-.882.882Z" fill="url(#af)"/></g><g transform="translate(127.551 10.253)"><path d="M.882,21.93A.862.862,0,0,1,0,21.048V.882A.862.862,0,0,1,.882,0a.862.862,0,0,1,.882.882V21.048a.862.862,0,0,1-.882.882Z" fill="url(#ag)"/></g><g transform="translate(27.804 11.121)"><path d="M.882,20.166A.862.862,0,0,1,0,19.284H0V.882A.862.862,0,0,1,.882,0a.862.862,0,0,1,.882.882v18.4a.862.862,0,0,1-.882.882Z" fill="url(#ah)"/></g></g></g></g></svg>