<svg xmlns="http://www.w3.org/2000/svg" xmlns:xlink="http://www.w3.org/1999/xlink" width="32.245" height="35.334" viewBox="0 0 32.245 35.334"><defs><linearGradient id="a" y1="0.501" x2="0.998" y2="0.501" gradientUnits="objectBoundingBox"><stop offset="0" stop-color="#e600ff"/><stop offset="1" stop-color="#f3071d"/></linearGradient></defs><path d="M3.778,35.285A3.717,3.717,0,0,1,1.1,34.155,3.908,3.908,0,0,1,0,31.412V3.868A3.849,3.849,0,0,1,1.847.512,3.931,3.931,0,0,1,5.627.425L16.121,6.364,26.618.425A3.717,3.717,0,0,1,30.4.512a3.849,3.849,0,0,1,1.847,3.357V21.083a3.78,3.78,0,1,1-7.557,0V10.41L17.969,14.2a4,4,0,0,1-3.695,0L7.557,10.41v21a3.908,3.908,0,0,1-1.1,2.743,3.717,3.717,0,0,1-2.676,1.13Z" transform="translate(0.001 0.049)" fill="url(#a)"/></svg>