<svg xmlns="http://www.w3.org/2000/svg" xmlns:xlink="http://www.w3.org/1999/xlink" width="40" height="40" viewBox="0 0 40 40"><defs><linearGradient id="a" x1="0.5" x2="0.5" y2="1" gradientUnits="objectBoundingBox"><stop offset="0" stop-color="#f2061d"/><stop offset="1" stop-color="#e600fe"/></linearGradient></defs><path d="M-2018-1015a19.87,19.87,0,0,1-14.142-5.858A19.869,19.869,0,0,1-2038-1035a19.869,19.869,0,0,1,5.858-14.142A19.869,19.869,0,0,1-2018-1055a19.869,19.869,0,0,1,14.142,5.858A19.869,19.869,0,0,1-1998-1035a19.869,19.869,0,0,1-5.858,14.142A19.869,19.869,0,0,1-2018-1015Zm0-39a19.021,19.021,0,0,0-19,19,19.021,19.021,0,0,0,19,19,19.021,19.021,0,0,0,19-19A19.021,19.021,0,0,0-2018-1054Z" transform="translate(2038 1055)" fill="url(#a)"/></svg>