<svg xmlns="http://www.w3.org/2000/svg" xmlns:xlink="http://www.w3.org/1999/xlink" width="83.53" height="13.118" viewBox="0 0 83.53 13.118"><defs><linearGradient id="a" x1="0.049" y1="0.5" x2="1" y2="0.5" gradientUnits="objectBoundingBox"><stop offset="0" stop-color="#e600ff"/><stop offset="1" stop-color="#f3071d"/></linearGradient></defs><path d="M56.539,13.115c-4.818,0-7.27-2.68-9.238-4.818-1.882-2.024-3.051-3.165-5.5-3.165S38.177,6.273,36.324,8.3c-1.967,2.138-4.448,4.818-9.238,4.818-4.818,0-7.27-2.68-9.266-4.818-1.853-2.027-3.02-3.168-5.474-3.168S8.725,6.273,6.872,8.3a19.631,19.631,0,0,1-2.709,2.595A2.562,2.562,0,0,1,1.027,6.843,15.2,15.2,0,0,0,3.08,4.818C5.076,2.68,7.528,0,12.346,0s7.27,2.68,9.266,4.818c1.853,2.024,3.022,3.165,5.474,3.165s3.621-1.14,5.474-3.165C34.528,2.68,37.009,0,41.8,0c4.818,0,7.27,2.68,9.266,4.818,1.853,2.024,3.022,3.165,5.474,3.165s3.621-1.14,5.474-3.165C64.009,2.68,66.461,0,71.279,0s7.27,2.68,9.238,4.818A17.06,17.06,0,0,0,82.57,6.843a2.561,2.561,0,1,1-3.136,4.049A19.363,19.363,0,0,1,76.753,8.3C74.872,6.273,73.7,5.132,71.279,5.132c-2.452,0-3.621,1.14-5.474,3.165C63.809,10.435,61.357,13.115,56.539,13.115Z" transform="translate(-0.033)" fill="url(#a)"/></svg>